<mxfile host="app.diagrams.net" modified="2023-05-30T01:54:48.574Z" agent="Mozilla/5.0 (Macintosh; Intel Mac OS X 10_15_7) AppleWebKit/537.36 (KHTML, like Gecko) Chrome/113.0.0.0 Safari/537.36" etag="xmYdFiAwDJhmoGBlm5uC" version="21.3.0" type="github">
  <diagram name="第 1 页" id="EL3OAyzF41NLkLPDKQVB">
    <mxGraphModel dx="2171" dy="1265" grid="1" gridSize="10" guides="1" tooltips="1" connect="1" arrows="1" fold="1" page="1" pageScale="1" pageWidth="827" pageHeight="1169" math="0" shadow="0">
      <root>
        <mxCell id="0" />
        <mxCell id="1" parent="0" />
        <mxCell id="sKKFgN2ZJ8KWmy6Swe5V-1" value="&lt;h1&gt;Heading&lt;/h1&gt;&lt;p&gt;Lorem ipsum dolor sit amet, consectetur adipisicing elit, sed do eiusmod tempor incididunt ut labore et dolore magna aliqua.&lt;/p&gt;" style="text;html=1;strokeColor=none;fillColor=none;spacing=5;spacingTop=-20;whiteSpace=wrap;overflow=hidden;rounded=0;" vertex="1" parent="1">
          <mxGeometry x="140" y="40" width="190" height="120" as="geometry" />
        </mxCell>
        <mxCell id="sKKFgN2ZJ8KWmy6Swe5V-2" value="" style="rounded=1;whiteSpace=wrap;html=1;absoluteArcSize=1;arcSize=14;strokeWidth=2;sketch=1;curveFitting=1;jiggle=2;shadow=1;gradientDirection=east;fontFamily=Garamond;" vertex="1" parent="1">
          <mxGeometry x="100" y="360" width="120" height="50" as="geometry" />
        </mxCell>
        <mxCell id="sKKFgN2ZJ8KWmy6Swe5V-3" value="" style="strokeWidth=2;html=1;shape=mxgraph.flowchart.annotation_2;align=left;labelPosition=right;pointerEvents=1;sketch=1;curveFitting=1;jiggle=2;shadow=1;gradientDirection=east;fontFamily=Garamond;" vertex="1" parent="1">
          <mxGeometry x="220" y="307.5" width="90" height="155" as="geometry" />
        </mxCell>
        <mxCell id="sKKFgN2ZJ8KWmy6Swe5V-6" value="" style="rounded=1;whiteSpace=wrap;html=1;absoluteArcSize=1;arcSize=14;strokeWidth=2;sketch=1;curveFitting=1;jiggle=2;shadow=1;gradientDirection=east;fontFamily=Garamond;" vertex="1" parent="1">
          <mxGeometry x="310" y="440" width="120" height="50" as="geometry" />
        </mxCell>
        <mxCell id="sKKFgN2ZJ8KWmy6Swe5V-7" value="" style="rounded=1;whiteSpace=wrap;html=1;absoluteArcSize=1;arcSize=14;strokeWidth=2;sketch=1;curveFitting=1;jiggle=2;shadow=1;gradientDirection=east;fontFamily=Garamond;" vertex="1" parent="1">
          <mxGeometry x="310" y="280" width="120" height="50" as="geometry" />
        </mxCell>
      </root>
    </mxGraphModel>
  </diagram>
</mxfile>
